<svg xmlns="http://www.w3.org/2000/svg" viewBox="0 0 294.313 294.313" style="enable-background:new 0 0 294.313 294.313" xml:space="preserve"><path d="M95.521 57.084c13.184 0 23.907-6.249 29.547-12.097a7.5 7.5 0 0 0-5.398-12.706H71.372a7.5 7.5 0 0 0-5.397 12.707c5.641 5.848 16.364 12.096 29.546 12.096z"/><path d="M195.938 78.348V18.281h9.333c4.143 0 7.5-3.357 7.5-7.5s-3.357-7.5-7.5-7.5h-49c-4.143 0-7.5 3.357-7.5 7.5s3.357 7.5 7.5 7.5h24.667v19.758c-47 6.2-83.697 25.987-109.3 58.884-27.674 35.557-36.632 80.038-39.344 111.093-.085.972-.121 1.936-.196 2.893C13.774 214.781 0 231.073 0 250.531c0 22.332 18.178 40.5 40.51 40.5s40.505-18.168 40.505-40.5c0-20.032-14.62-36.704-33.75-39.927 2.658-32.091 11.322-72.495 36.207-104.468 22.736-29.211 55.465-47.002 97.465-52.958v25.074c-55 3.494-99.584 49.823-99.584 106.28 0 58.725 47.859 106.5 106.583 106.5s106.375-47.775 106.375-106.5c.002-55.949-43.373-101.959-98.373-106.184zM66.021 250.531c0 14.061-11.439 25.5-25.5 25.5s-25.5-11.439-25.5-25.5c0-10.818 6.775-20.079 16.303-23.777-.61 23.593 1.903 28.757 2.023 29.593a7.502 7.502 0 0 0 8.491 6.357 7.5 7.5 0 0 0 6.356-8.491c-.056-.389-2.496-5.401-1.784-28.488 11.229 2.666 19.611 12.773 19.611 24.806zm122 25.5c-50.453 0-91.667-41.047-91.667-91.5 0-48.183 37.584-87.784 84.584-91.25v116c0 4.143 3.357 7.5 7.5 7.5s7.5-3.357 7.5-7.5V93.407c47 4.185 83.416 43.452 83.416 91.124 0 50.453-40.88 91.5-91.333 91.5z"/></svg>